<svg xmlns="http://www.w3.org/2000/svg" width="32" height="32" viewBox="0 0 32 32">
  <metadata><?xpacket begin="﻿" id="W5M0MpCehiHzreSzNTczkc9d"?>
<x:xmpmeta xmlns:x="adobe:ns:meta/" x:xmptk="Adobe XMP Core 5.6-c138 79.159824, 2016/09/14-01:09:01        ">
   <rdf:RDF xmlns:rdf="http://www.w3.org/1999/02/22-rdf-syntax-ns#">
      <rdf:Description rdf:about=""/>
   </rdf:RDF>
</x:xmpmeta>
                                                                                                    
                                                                                                    
                                                                                                    
                                                                                                    
                                                                                                    
                                                                                                    
                                                                                                    
                                                                                                    
                                                                                                    
                                                                                                    
                                                                                                    
                                                                                                    
                                                                                                    
                                                                                                    
                                                                                                    
                                                                                                    
                                                                                                    
                                                                                                    
                                                                                                    
                                                                                                    
                           
<?xpacket end="w"?></metadata>
<defs>
    <style>
      .cls-1 {
        fill: #579bde;
        fill-rule: evenodd;
      }
    </style>
  </defs>
  <path id="Forma_1" data-name="Forma 1" class="cls-1" d="M16,1A15,15,0,1,0,31,16,14.957,14.957,0,0,0,16,1Zm2.182,15.273L23.3,21.386a0.659,0.659,0,0,1,0,.955l-0.954.954a0.737,0.737,0,0,1-.477.2,0.619,0.619,0,0,1-.477-0.2l-5.114-5.114a0.33,0.33,0,0,0-.477,0L10.682,23.3a0.736,0.736,0,0,1-.477.2,0.619,0.619,0,0,1-.477-0.2l-0.955-.954a0.659,0.659,0,0,1,0-.955l5.114-5.114a0.33,0.33,0,0,0,0-.477L8.773,10.682a0.659,0.659,0,0,1,0-.955l0.955-.954a0.659,0.659,0,0,1,.955,0L15.8,13.886a0.33,0.33,0,0,0,.477,0l5.114-5.114a0.736,0.736,0,0,1,.477-0.2,0.619,0.619,0,0,1,.477.2L23.3,9.727a0.659,0.659,0,0,1,0,.955L18.182,15.8A0.327,0.327,0,0,0,18.182,16.273Z"/>
</svg>
